<svg width="24" height="24" viewBox="0 0 24 24" fill="none" xmlns="http://www.w3.org/2000/svg">
	<path d="M5 0H19C21.762 0 24 2.239 24 5V19C24 21.761 21.762 24 19 24H5C2.239 24 0 21.761 0 19V5C0 2.239 2.239 0 5 0Z" fill="#DDDDDD"/>
	<path d="M18.3328 12.6733V12.2652H22.0001V13.0815H18.3328V12.6733ZM18.3328 11.3672V10.9591H22.0001V11.7754H18.3328V11.3672ZM18.3328 10.0612V9.653H22.0001V10.4693H18.3328V10.0612V10.0612ZM18.3328 8.71425V8.30609H22.0001V9.16322H18.3328V8.71425V8.71425ZM18.3328 7.44897V7H22.0001V7.89794H18.3328V7.44897V7.44897Z" fill="#2D2727"/>
	<path d="M10.145 12.6733V12.2652H13.8124V13.0815H10.145V12.6733ZM10.145 11.3672V10.9591H13.8124V11.7754H10.145V11.3672ZM10.145 10.0612V9.653H13.8124V10.4693H10.145V10.0612V10.0612ZM10.145 8.71424V8.30609H13.8124V9.16321H10.145V8.71424V8.71424Z" fill="#2D2727"/>
	<path d="M14.2388 12.6734V12.2652H17.9061V13.0815H14.2388V12.6734V12.6734ZM14.2388 11.3673V10.9591H17.9061V11.7754H14.2388V11.3673V11.3673Z" fill="#2D2727"/>
	<path d="M6.09375 16.5916V16.1835H9.67584V16.9998H6.09375V16.5916ZM6.09375 15.2447V14.8365H9.67584V15.6529H6.09375V15.2447ZM6.09375 13.9386V13.5305H9.67584V14.3468H6.09375V13.9386Z" fill="#2D2727"/>
	<path d="M2 12.6734V12.2652H5.58209V13.0815H2V12.6734ZM2 11.3673V10.9591H5.58209V11.7754H2V11.3673Z" fill="#2D2727"/>
	<path d="M18.3752 16.5916V16.1835H21.9573V16.9998H18.3752V16.5916ZM18.3752 15.2447V14.8365H21.9573V15.6529H18.3752V15.2447ZM18.3752 13.9386V13.5305H21.9573V14.3468H18.3752V13.9386Z" fill="#2D2727"/>
	<path d="M14.2815 16.5916V16.1835H17.8636V16.9998H14.2815V16.5916V16.5916ZM14.2815 15.2447V14.8365H17.8636V15.6529H14.2815V15.2447V15.2447ZM14.2815 13.9386V13.5305H17.8636V14.3468H14.2815V13.9386V13.9386Z" fill="#2D2727"/>
	<path d="M10.1877 16.5916V16.1835H13.7698V16.9998H10.1877V16.5916V16.5916ZM10.1877 15.2447V14.8365H13.7698V15.6529H10.1877V15.2447V15.2447ZM10.1877 13.9386V13.5305H13.7698V14.3468H10.1877V13.9386V13.9386Z" fill="#2D2727"/>
	<path d="M2 16.5916V16.1835H5.58209V16.9998H2V16.5916ZM2 15.2447V14.8365H5.58209V15.6529H2V15.2447ZM2 13.9386V13.5305H5.58209V14.3468H2V13.9386Z" fill="#2D2727"/>
</svg>
