<svg width="24" height="24" viewBox="0 0 24 24" xmlns="http://www.w3.org/2000/svg">
	<path d="M16.485 2.51498C19.75 4.065 22.095 7.23998 22.45 11H23.95C23.44 4.83998 18.29 0 12 0C11.775 0 11.56 0.0200156 11.335 0.0350156L15.15 3.84998L16.485 2.51498ZM10.23 1.74502C9.645 1.16002 8.69499 1.16002 8.10999 1.74502L1.74502 8.10998C1.16002 8.69498 1.16002 9.645 1.74502 10.23L13.765 22.25C14.35 22.835 15.3 22.835 15.885 22.25L22.25 15.885C22.835 15.3 22.835 14.35 22.25 13.765L10.23 1.74502ZM14.83 21.19L2.805 9.17002L9.17002 2.805L21.19 14.825L14.83 21.19ZM7.515 21.485C4.25002 19.935 1.905 16.76 1.55002 13H0.0500183C0.560018 19.16 5.70999 24 12 24C12.225 24 12.44 23.98 12.665 23.965L8.85 20.15L7.515 21.485Z" fill="black"/>
</svg>