<svg width="24" height="24" viewBox="0 0 24 24" fill="none" xmlns="http://www.w3.org/2000/svg">
	<path d="M5 0H19C21.762 0 24 2.239 24 5V19C24 21.761 21.762 24 19 24H5C2.239 24 0 21.761 0 19V5C0 2.239 2.239 0 5 0Z" fill="#DDDDDD"/>
	<path d="M2.62134 10.3107L5.69207 7.23993L8.76279 10.3107L5.69206 13.3814L2.62134 10.3107Z" fill="#2D2727"/>
	<path d="M8.76279 10.3107L11.8335 7.23992L14.9043 10.3106L11.8335 13.3814L8.76279 10.3107Z" fill="#2D2727"/>
	<path d="M14.9043 10.3106L18.1719 7.2399L21.2426 10.3106L18.1719 13.3814L14.9043 10.3106Z" fill="#2D2727"/>
	<path d="M8.9597 16.4522L11.8335 13.3814L15.1012 16.4522L12.0304 19.5229L8.9597 16.4522Z" fill="#2D2727"/>
</svg>
